<svg width="90" height="17" viewBox="0 0 90 17" fill="none" xmlns="http://www.w3.org/2000/svg">
<path d="M0.326172 16.133V0.450195H9.18942C10.9104 0.450195 12.194 0.80157 13.0402 1.50432C13.8864 2.20707 14.3095 3.18231 14.3095 4.43005C14.3095 5.01807 14.2019 5.54872 13.9868 6.022C13.786 6.49528 13.4848 6.89685 13.0832 7.22671C12.696 7.54223 12.2227 7.77887 11.6634 7.93663V8.0442C12.3231 8.17327 12.8824 8.40991 13.3414 8.75412C13.8003 9.08398 14.1517 9.50706 14.3955 10.0234C14.6393 10.5253 14.7612 11.1062 14.7612 11.7659C14.7612 12.7125 14.5318 13.5084 14.0728 14.1538C13.6282 14.7992 12.9757 15.294 12.1152 15.6382C11.269 15.9681 10.2435 16.133 9.03884 16.133H0.326172ZM3.46703 13.8957H8.52253C9.59817 13.8957 10.3726 13.6734 10.8459 13.2288C11.3335 12.7698 11.5773 12.189 11.5773 11.4862C11.5773 10.7261 11.3335 10.1524 10.8459 9.76522C10.3583 9.37799 9.63402 9.18437 8.67312 9.18437H3.18737V7.0331H8.54404C9.17508 7.0331 9.67705 6.94705 10.0499 6.77494C10.4372 6.5885 10.724 6.33752 10.9104 6.022C11.0969 5.69214 11.1901 5.30491 11.1901 4.86031C11.1901 4.12888 10.932 3.58389 10.4157 3.22534C9.89935 2.86679 9.22528 2.68752 8.39345 2.68752H3.46703V13.8957Z" fill="#FF5B04"/>
<path d="M22.7559 16.3481C21.752 16.3481 20.8341 16.219 20.0023 15.9609C19.1704 15.6884 18.4534 15.294 17.851 14.7777C17.2486 14.2614 16.7825 13.6375 16.4527 12.9061C16.1371 12.1746 15.9794 11.3428 15.9794 10.4106C15.9794 9.1772 16.2591 8.12308 16.8184 7.24822C17.3921 6.35903 18.188 5.67779 19.2063 5.20451C20.2246 4.71689 21.4078 4.47308 22.7559 4.47308C23.7742 4.47308 24.6992 4.60933 25.531 4.88182C26.3629 5.15432 27.08 5.54872 27.6823 6.06502C28.2847 6.56699 28.7436 7.19086 29.0591 7.93663C29.389 8.66807 29.5539 9.49272 29.5539 10.4106C29.5539 11.6297 29.2671 12.6909 28.6934 13.5945C28.1341 14.4837 27.3453 15.1649 26.327 15.6382C25.3231 16.1115 24.1327 16.3481 22.7559 16.3481ZM22.7559 13.9817C23.5447 13.9817 24.2116 13.8383 24.7566 13.5515C25.3159 13.2503 25.7462 12.8344 26.0474 12.3037C26.3485 11.7587 26.4991 11.1277 26.4991 10.4106C26.4991 9.86561 26.4131 9.37799 26.241 8.94773C26.0689 8.50313 25.8251 8.13025 25.5095 7.82907C25.194 7.51355 24.7996 7.26974 24.3263 7.09764C23.8674 6.92553 23.3439 6.83948 22.7559 6.83948C21.9958 6.83948 21.3361 6.99007 20.7767 7.29125C20.2174 7.57809 19.7871 7.98683 19.486 8.51748C19.1991 9.04812 19.0557 9.67917 19.0557 10.4106C19.0557 10.9556 19.1346 11.4504 19.2923 11.895C19.4645 12.3252 19.7083 12.6981 20.0238 13.0136C20.3536 13.3148 20.748 13.5515 21.207 13.7236C21.6659 13.8957 22.1822 13.9817 22.7559 13.9817Z" fill="#FF5B04"/>
<path d="M31.1222 16.133V4.68821H33.8758L34.0049 6.60284H34.134C34.3778 5.95746 34.7793 5.44832 35.3387 5.07544C35.898 4.70255 36.5649 4.51611 37.3394 4.51611C37.5401 4.51611 37.7194 4.52328 37.8772 4.53762C38.0493 4.55196 38.1999 4.57347 38.3289 4.60216V7.35579C38.1712 7.31276 37.9991 7.28408 37.8126 7.26974C37.6405 7.25539 37.4613 7.24822 37.2748 7.24822C36.6581 7.24822 36.1203 7.35579 35.6614 7.57092C35.2168 7.78604 34.8654 8.12308 34.6072 8.58201C34.3491 9.02661 34.2057 9.60028 34.177 10.303V16.133H31.1222Z" fill="#FF5B04"/>
<path d="M45.4871 16.3481C44.4832 16.3481 43.5653 16.219 42.7335 15.9609C41.9017 15.6884 41.1846 15.294 40.5822 14.7777C39.9799 14.2614 39.5138 13.6375 39.1839 12.9061C38.8684 12.1746 38.7106 11.3428 38.7106 10.4106C38.7106 9.1772 38.9903 8.12308 39.5496 7.24822C40.1233 6.35903 40.9193 5.67779 41.9375 5.20451C42.9558 4.71689 44.139 4.47308 45.4871 4.47308C46.5054 4.47308 47.4305 4.60933 48.2623 4.88182C49.0941 5.15432 49.8112 5.54872 50.4136 6.06502C51.0159 6.56699 51.4749 7.19086 51.7904 7.93663C52.1202 8.66807 52.2852 9.49272 52.2852 10.4106C52.2852 11.6297 51.9983 12.6909 51.4247 13.5945C50.8653 14.4837 50.0765 15.1649 49.0583 15.6382C48.0543 16.1115 46.864 16.3481 45.4871 16.3481ZM45.4871 13.9817C46.2759 13.9817 46.9428 13.8383 47.4878 13.5515C48.0472 13.2503 48.4774 12.8344 48.7786 12.3037C49.0798 11.7587 49.2304 11.1277 49.2304 10.4106C49.2304 9.86561 49.1443 9.37799 48.9722 8.94773C48.8001 8.50313 48.5563 8.13025 48.2408 7.82907C47.9253 7.51355 47.5309 7.26974 47.0576 7.09764C46.5986 6.92553 46.0752 6.83948 45.4871 6.83948C44.727 6.83948 44.0673 6.99007 43.508 7.29125C42.9486 7.57809 42.5184 7.98683 42.2172 8.51748C41.9304 9.04812 41.787 9.67917 41.787 10.4106C41.787 10.9556 41.8658 11.4504 42.0236 11.895C42.1957 12.3252 42.4395 12.6981 42.755 13.0136C43.0849 13.3148 43.4793 13.5515 43.9382 13.7236C44.3972 13.8957 44.9135 13.9817 45.4871 13.9817Z" fill="#FF5B04"/>
<path d="M53.8534 16.133V4.68821H56.8007L56.9082 6.75343H57.0803C57.4532 6.022 57.9982 5.46267 58.7153 5.07544C59.4467 4.67386 60.2786 4.47308 61.2108 4.47308C62.229 4.47308 63.0967 4.70255 63.8138 5.16149C64.5453 5.60608 65.0616 6.25864 65.3627 7.11915H65.5564C65.9866 6.21561 66.5961 5.54872 67.3849 5.11846C68.1737 4.68821 69.0701 4.47308 70.074 4.47308C71.0636 4.47308 71.9098 4.66669 72.6125 5.05392C73.3296 5.42681 73.8674 6.00048 74.226 6.77494C74.5989 7.5494 74.7853 8.53899 74.7853 9.7437V16.133H71.7305V10.1524C71.7305 9.46404 71.6445 8.87602 71.4724 8.3884C71.3146 7.88644 71.0421 7.49921 70.6549 7.22671C70.2676 6.95422 69.7227 6.81797 69.0199 6.81797C68.3745 6.81797 67.808 6.96139 67.3204 7.24822C66.8471 7.52072 66.4814 7.90795 66.2232 8.40991C65.9651 8.91188 65.836 9.49989 65.836 10.174V16.133H62.7812V10.2385C62.7812 9.52141 62.6952 8.91188 62.5231 8.40991C62.351 7.89361 62.0641 7.49921 61.6625 7.22671C61.261 6.95422 60.7375 6.81797 60.0921 6.81797C59.418 6.81797 58.8444 6.96139 58.3711 7.24822C57.8978 7.53506 57.5321 7.92946 57.2739 8.43143C57.0301 8.93339 56.9082 9.51423 56.9082 10.174V16.133H53.8534Z" fill="#FF5B04"/>
<path d="M82.0378 16.3481C81.1916 16.3481 80.4172 16.2119 79.7144 15.9394C79.026 15.6525 78.4308 15.251 77.9289 14.7347C77.4269 14.204 77.0397 13.5801 76.7672 12.8631C76.509 12.1316 76.38 11.3141 76.38 10.4106C76.38 9.19154 76.6166 8.14459 77.0899 7.26974C77.5632 6.38054 78.2229 5.69931 79.069 5.22603C79.9296 4.7384 80.9191 4.49459 82.0378 4.49459C82.7979 4.49459 83.472 4.58781 84.06 4.77426C84.648 4.94636 85.15 5.19734 85.5659 5.5272C85.9818 5.84272 86.2973 6.21561 86.5125 6.64587H86.6415L86.7491 4.68821H89.6533V16.133H86.577V14.0893H86.4479C86.1037 14.7777 85.53 15.3298 84.7269 15.7458C83.9238 16.1473 83.0274 16.3481 82.0378 16.3481ZM82.9413 14.0032C83.7015 14.0032 84.354 13.8526 84.899 13.5515C85.444 13.2503 85.8599 12.8559 86.1467 12.3683C86.4336 11.8663 86.577 11.3141 86.577 10.7118V10.0234C86.577 9.43535 86.4336 8.90471 86.1467 8.43143C85.8599 7.9438 85.444 7.55657 84.899 7.26974C84.354 6.9829 83.7015 6.83948 82.9413 6.83948C82.2529 6.83948 81.6434 6.97573 81.1128 7.24822C80.5965 7.52072 80.1877 7.92946 79.8865 8.47445C79.5997 9.0051 79.4563 9.65048 79.4563 10.4106C79.4563 11.1564 79.5997 11.8018 79.8865 12.3467C80.1734 12.8774 80.5749 13.2861 81.0912 13.573C81.6219 13.8598 82.2386 14.0032 82.9413 14.0032Z" fill="#FF5B04"/>
</svg>
